<mxfile host="app.diagrams.net" agent="Mozilla/5.0 (Windows NT 10.0; Win64; x64) AppleWebKit/537.36 (KHTML, like Gecko) Chrome/132.0.0.0 Safari/537.36" version="26.0.11">
  <diagram name="Page-1" id="xLXhmqN9aVw_qr9YBNqs">
    <mxGraphModel dx="1257" dy="631" grid="1" gridSize="10" guides="1" tooltips="1" connect="1" arrows="1" fold="1" page="1" pageScale="1" pageWidth="850" pageHeight="1100" math="0" shadow="0">
      <root>
        <mxCell id="0" />
        <mxCell id="1" parent="0" />
        <mxCell id="_K1uAz9cgz4Qz0vKzNYE-1" value="" style="endArrow=none;html=1;rounded=0;" edge="1" parent="1">
          <mxGeometry width="50" height="50" relative="1" as="geometry">
            <mxPoint x="200" y="120" as="sourcePoint" />
            <mxPoint x="290" y="120" as="targetPoint" />
          </mxGeometry>
        </mxCell>
        <mxCell id="_K1uAz9cgz4Qz0vKzNYE-2" value="" style="endArrow=none;html=1;rounded=0;entryX=0;entryY=0.75;entryDx=0;entryDy=0;entryPerimeter=0;" edge="1" parent="1" target="_K1uAz9cgz4Qz0vKzNYE-4">
          <mxGeometry width="50" height="50" relative="1" as="geometry">
            <mxPoint x="200" y="140" as="sourcePoint" />
            <mxPoint x="290" y="150" as="targetPoint" />
          </mxGeometry>
        </mxCell>
        <mxCell id="_K1uAz9cgz4Qz0vKzNYE-3" value="" style="endArrow=none;html=1;rounded=0;entryX=0;entryY=0.75;entryDx=0;entryDy=0;entryPerimeter=0;" edge="1" parent="1" target="_K1uAz9cgz4Qz0vKzNYE-5">
          <mxGeometry width="50" height="50" relative="1" as="geometry">
            <mxPoint x="200" y="210" as="sourcePoint" />
            <mxPoint x="360" y="160" as="targetPoint" />
            <Array as="points">
              <mxPoint x="280" y="210" />
              <mxPoint x="330" y="210" />
              <mxPoint x="340" y="210" />
              <mxPoint x="340" y="200" />
              <mxPoint x="340" y="150" />
            </Array>
          </mxGeometry>
        </mxCell>
        <mxCell id="_K1uAz9cgz4Qz0vKzNYE-4" value="" style="verticalLabelPosition=bottom;shadow=0;dashed=0;align=center;html=1;verticalAlign=top;shape=mxgraph.electrical.logic_gates.logic_gate;operation=xor;" vertex="1" parent="1">
          <mxGeometry x="290" y="110" width="70" height="40" as="geometry" />
        </mxCell>
        <mxCell id="_K1uAz9cgz4Qz0vKzNYE-5" value="" style="verticalLabelPosition=bottom;shadow=0;dashed=0;align=center;html=1;verticalAlign=top;shape=mxgraph.electrical.logic_gates.logic_gate;operation=xor;" vertex="1" parent="1">
          <mxGeometry x="360" y="120" width="60" height="40" as="geometry" />
        </mxCell>
        <mxCell id="_K1uAz9cgz4Qz0vKzNYE-6" value="sum&lt;div&gt;&lt;br&gt;&lt;/div&gt;" style="text;html=1;align=center;verticalAlign=middle;resizable=0;points=[];autosize=1;strokeColor=none;fillColor=none;" vertex="1" parent="1">
          <mxGeometry x="395" y="113" width="50" height="40" as="geometry" />
        </mxCell>
        <mxCell id="_K1uAz9cgz4Qz0vKzNYE-10" value="c" style="text;html=1;align=center;verticalAlign=middle;resizable=0;points=[];autosize=1;strokeColor=none;fillColor=none;" vertex="1" parent="1">
          <mxGeometry x="185" y="190" width="30" height="30" as="geometry" />
        </mxCell>
        <mxCell id="_K1uAz9cgz4Qz0vKzNYE-11" value="b&lt;div&gt;&lt;br&gt;&lt;/div&gt;" style="text;html=1;align=center;verticalAlign=middle;resizable=0;points=[];autosize=1;strokeColor=none;fillColor=none;" vertex="1" parent="1">
          <mxGeometry x="185" y="123" width="30" height="40" as="geometry" />
        </mxCell>
        <mxCell id="_K1uAz9cgz4Qz0vKzNYE-12" value="a" style="text;html=1;align=center;verticalAlign=middle;resizable=0;points=[];autosize=1;strokeColor=none;fillColor=none;" vertex="1" parent="1">
          <mxGeometry x="185" y="98" width="30" height="30" as="geometry" />
        </mxCell>
        <mxCell id="_K1uAz9cgz4Qz0vKzNYE-13" value="" style="endArrow=none;html=1;rounded=0;entryX=0.916;entryY=0.511;entryDx=0;entryDy=0;entryPerimeter=0;exitX=0;exitY=0.25;exitDx=0;exitDy=0;exitPerimeter=0;" edge="1" parent="1" source="_K1uAz9cgz4Qz0vKzNYE-15" target="_K1uAz9cgz4Qz0vKzNYE-4">
          <mxGeometry width="50" height="50" relative="1" as="geometry">
            <mxPoint x="410" y="180" as="sourcePoint" />
            <mxPoint x="355" y="140" as="targetPoint" />
            <Array as="points">
              <mxPoint x="354" y="190" />
            </Array>
          </mxGeometry>
        </mxCell>
        <mxCell id="_K1uAz9cgz4Qz0vKzNYE-14" value="" style="endArrow=none;html=1;rounded=0;" edge="1" parent="1">
          <mxGeometry width="50" height="50" relative="1" as="geometry">
            <mxPoint x="336.5" y="210" as="sourcePoint" />
            <mxPoint x="406.5" y="210" as="targetPoint" />
          </mxGeometry>
        </mxCell>
        <mxCell id="_K1uAz9cgz4Qz0vKzNYE-15" value="" style="shape=or;whiteSpace=wrap;html=1;" vertex="1" parent="1">
          <mxGeometry x="406.5" y="180" width="27" height="40" as="geometry" />
        </mxCell>
        <mxCell id="_K1uAz9cgz4Qz0vKzNYE-16" value="" style="endArrow=none;html=1;rounded=0;exitX=0;exitY=0.25;exitDx=0;exitDy=0;exitPerimeter=0;" edge="1" parent="1" source="_K1uAz9cgz4Qz0vKzNYE-18">
          <mxGeometry width="50" height="50" relative="1" as="geometry">
            <mxPoint x="270" y="160" as="sourcePoint" />
            <mxPoint x="240" y="120" as="targetPoint" />
            <Array as="points">
              <mxPoint x="240" y="160" />
            </Array>
          </mxGeometry>
        </mxCell>
        <mxCell id="_K1uAz9cgz4Qz0vKzNYE-18" value="" style="shape=or;whiteSpace=wrap;html=1;" vertex="1" parent="1">
          <mxGeometry x="270" y="153" width="20" height="30" as="geometry" />
        </mxCell>
        <mxCell id="_K1uAz9cgz4Qz0vKzNYE-29" style="edgeStyle=orthogonalEdgeStyle;rounded=0;orthogonalLoop=1;jettySize=auto;html=1;" edge="1" parent="1" source="_K1uAz9cgz4Qz0vKzNYE-19">
          <mxGeometry relative="1" as="geometry">
            <mxPoint x="550" y="181.5" as="targetPoint" />
          </mxGeometry>
        </mxCell>
        <mxCell id="_K1uAz9cgz4Qz0vKzNYE-19" value="" style="shape=xor;whiteSpace=wrap;html=1;" vertex="1" parent="1">
          <mxGeometry x="480" y="153" width="50" height="57" as="geometry" />
        </mxCell>
        <mxCell id="_K1uAz9cgz4Qz0vKzNYE-24" value="" style="endArrow=none;html=1;rounded=0;exitX=0;exitY=0.75;exitDx=0;exitDy=0;exitPerimeter=0;" edge="1" parent="1" source="_K1uAz9cgz4Qz0vKzNYE-18">
          <mxGeometry width="50" height="50" relative="1" as="geometry">
            <mxPoint x="210" y="190" as="sourcePoint" />
            <mxPoint x="260" y="140" as="targetPoint" />
            <Array as="points">
              <mxPoint x="260" y="176" />
            </Array>
          </mxGeometry>
        </mxCell>
        <mxCell id="_K1uAz9cgz4Qz0vKzNYE-25" style="edgeStyle=orthogonalEdgeStyle;rounded=0;orthogonalLoop=1;jettySize=auto;html=1;exitX=1;exitY=0.5;exitDx=0;exitDy=0;exitPerimeter=0;entryX=0.175;entryY=0.25;entryDx=0;entryDy=0;entryPerimeter=0;" edge="1" parent="1" source="_K1uAz9cgz4Qz0vKzNYE-18" target="_K1uAz9cgz4Qz0vKzNYE-19">
          <mxGeometry relative="1" as="geometry" />
        </mxCell>
        <mxCell id="_K1uAz9cgz4Qz0vKzNYE-27" style="edgeStyle=orthogonalEdgeStyle;rounded=0;orthogonalLoop=1;jettySize=auto;html=1;exitX=1;exitY=0.5;exitDx=0;exitDy=0;exitPerimeter=0;entryX=0.175;entryY=0.75;entryDx=0;entryDy=0;entryPerimeter=0;" edge="1" parent="1" source="_K1uAz9cgz4Qz0vKzNYE-15" target="_K1uAz9cgz4Qz0vKzNYE-19">
          <mxGeometry relative="1" as="geometry" />
        </mxCell>
        <mxCell id="_K1uAz9cgz4Qz0vKzNYE-28" value="carry" style="text;html=1;align=center;verticalAlign=middle;resizable=0;points=[];autosize=1;strokeColor=none;fillColor=none;" vertex="1" parent="1">
          <mxGeometry x="520" y="150" width="50" height="30" as="geometry" />
        </mxCell>
      </root>
    </mxGraphModel>
  </diagram>
</mxfile>
